<mxfile host="app.diagrams.net" modified="2024-03-04T02:55:41.188Z" agent="Mozilla/5.0 (Windows NT 10.0; Win64; x64; rv:123.0) Gecko/20100101 Firefox/123.0" etag="mzcQqRgVocSwins6bpfy" version="24.0.1" type="github">
  <diagram id="C5RBs43oDa-KdzZeNtuy" name="Page-1">
    <mxGraphModel dx="2669" dy="797" grid="0" gridSize="10" guides="1" tooltips="1" connect="1" arrows="1" fold="1" page="1" pageScale="1" pageWidth="1169" pageHeight="827" math="0" shadow="0">
      <root>
        <mxCell id="WIyWlLk6GJQsqaUBKTNV-0" />
        <mxCell id="WIyWlLk6GJQsqaUBKTNV-1" parent="WIyWlLk6GJQsqaUBKTNV-0" />
        <mxCell id="xnfu27rIe9-U-YRjn5MW-18" style="edgeStyle=orthogonalEdgeStyle;rounded=0;orthogonalLoop=1;jettySize=auto;html=1;exitX=0.5;exitY=0;exitDx=0;exitDy=0;entryX=0;entryY=0.25;entryDx=0;entryDy=0;" edge="1" parent="WIyWlLk6GJQsqaUBKTNV-1" source="xnfu27rIe9-U-YRjn5MW-2" target="xnfu27rIe9-U-YRjn5MW-6">
          <mxGeometry relative="1" as="geometry" />
        </mxCell>
        <mxCell id="xnfu27rIe9-U-YRjn5MW-20" style="edgeStyle=orthogonalEdgeStyle;rounded=0;orthogonalLoop=1;jettySize=auto;html=1;exitX=1;exitY=0.75;exitDx=0;exitDy=0;entryX=0;entryY=0.25;entryDx=0;entryDy=0;" edge="1" parent="WIyWlLk6GJQsqaUBKTNV-1" source="xnfu27rIe9-U-YRjn5MW-2" target="xnfu27rIe9-U-YRjn5MW-9">
          <mxGeometry relative="1" as="geometry" />
        </mxCell>
        <mxCell id="xnfu27rIe9-U-YRjn5MW-22" style="edgeStyle=orthogonalEdgeStyle;rounded=0;orthogonalLoop=1;jettySize=auto;html=1;exitX=0.583;exitY=1.017;exitDx=0;exitDy=0;entryX=0;entryY=0.25;entryDx=0;entryDy=0;exitPerimeter=0;" edge="1" parent="WIyWlLk6GJQsqaUBKTNV-1" source="xnfu27rIe9-U-YRjn5MW-2" target="xnfu27rIe9-U-YRjn5MW-13">
          <mxGeometry relative="1" as="geometry" />
        </mxCell>
        <mxCell id="xnfu27rIe9-U-YRjn5MW-73" style="edgeStyle=orthogonalEdgeStyle;rounded=0;orthogonalLoop=1;jettySize=auto;html=1;exitX=0.75;exitY=1;exitDx=0;exitDy=0;entryX=0;entryY=0.25;entryDx=0;entryDy=0;" edge="1" parent="WIyWlLk6GJQsqaUBKTNV-1" source="xnfu27rIe9-U-YRjn5MW-2" target="xnfu27rIe9-U-YRjn5MW-15">
          <mxGeometry relative="1" as="geometry">
            <Array as="points">
              <mxPoint x="74" y="434" />
              <mxPoint x="74" y="445" />
              <mxPoint x="111" y="445" />
              <mxPoint x="111" y="531" />
            </Array>
          </mxGeometry>
        </mxCell>
        <mxCell id="xnfu27rIe9-U-YRjn5MW-74" style="edgeStyle=orthogonalEdgeStyle;rounded=0;orthogonalLoop=1;jettySize=auto;html=1;exitX=0.75;exitY=0;exitDx=0;exitDy=0;entryX=0;entryY=0.5;entryDx=0;entryDy=0;fillColor=#e51400;strokeColor=#B20000;" edge="1" parent="WIyWlLk6GJQsqaUBKTNV-1">
          <mxGeometry relative="1" as="geometry">
            <mxPoint x="70" y="396" as="sourcePoint" />
            <mxPoint x="189.25" y="342" as="targetPoint" />
            <Array as="points">
              <mxPoint x="112.25" y="396" />
              <mxPoint x="112.25" y="342" />
            </Array>
          </mxGeometry>
        </mxCell>
        <mxCell id="xnfu27rIe9-U-YRjn5MW-2" value="" style="shape=process;whiteSpace=wrap;html=1;backgroundOutline=1;size=0.22633744855967103;fillColor=#FCE8E7;" vertex="1" parent="WIyWlLk6GJQsqaUBKTNV-1">
          <mxGeometry x="6" y="385" width="81" height="49" as="geometry" />
        </mxCell>
        <mxCell id="xnfu27rIe9-U-YRjn5MW-5" value="InÃ­cio" style="text;html=1;align=center;verticalAlign=middle;whiteSpace=wrap;rounded=0;fontStyle=1" vertex="1" parent="WIyWlLk6GJQsqaUBKTNV-1">
          <mxGeometry x="28.25" y="397.5" width="37.5" height="18.5" as="geometry" />
        </mxCell>
        <mxCell id="xnfu27rIe9-U-YRjn5MW-57" style="edgeStyle=orthogonalEdgeStyle;rounded=0;orthogonalLoop=1;jettySize=auto;html=1;exitX=1;exitY=0.25;exitDx=0;exitDy=0;entryX=0;entryY=0.75;entryDx=0;entryDy=0;" edge="1" parent="WIyWlLk6GJQsqaUBKTNV-1" source="xnfu27rIe9-U-YRjn5MW-6" target="xnfu27rIe9-U-YRjn5MW-24">
          <mxGeometry relative="1" as="geometry" />
        </mxCell>
        <mxCell id="xnfu27rIe9-U-YRjn5MW-6" value="" style="shape=process;whiteSpace=wrap;html=1;backgroundOutline=1;size=0.25;" vertex="1" parent="WIyWlLk6GJQsqaUBKTNV-1">
          <mxGeometry x="186" y="206" width="120" height="60" as="geometry" />
        </mxCell>
        <mxCell id="xnfu27rIe9-U-YRjn5MW-51" style="edgeStyle=orthogonalEdgeStyle;rounded=0;orthogonalLoop=1;jettySize=auto;html=1;exitX=1;exitY=0.5;exitDx=0;exitDy=0;entryX=0;entryY=0.5;entryDx=0;entryDy=0;fillColor=#e51400;strokeColor=#B20000;" edge="1" parent="WIyWlLk6GJQsqaUBKTNV-1" source="xnfu27rIe9-U-YRjn5MW-8" target="xnfu27rIe9-U-YRjn5MW-49">
          <mxGeometry relative="1" as="geometry">
            <Array as="points">
              <mxPoint x="356" y="331" />
              <mxPoint x="356" y="366" />
            </Array>
          </mxGeometry>
        </mxCell>
        <mxCell id="xnfu27rIe9-U-YRjn5MW-86" style="edgeStyle=orthogonalEdgeStyle;rounded=0;orthogonalLoop=1;jettySize=auto;html=1;exitX=1;exitY=0.75;exitDx=0;exitDy=0;entryX=0;entryY=0.25;entryDx=0;entryDy=0;" edge="1" parent="WIyWlLk6GJQsqaUBKTNV-1" source="xnfu27rIe9-U-YRjn5MW-8" target="xnfu27rIe9-U-YRjn5MW-31">
          <mxGeometry relative="1" as="geometry" />
        </mxCell>
        <mxCell id="xnfu27rIe9-U-YRjn5MW-8" value="" style="shape=process;whiteSpace=wrap;html=1;backgroundOutline=1;size=0.25;fillColor=#FCE8E7;" vertex="1" parent="WIyWlLk6GJQsqaUBKTNV-1">
          <mxGeometry x="186" y="301" width="120" height="60" as="geometry" />
        </mxCell>
        <mxCell id="xnfu27rIe9-U-YRjn5MW-9" value="" style="shape=process;whiteSpace=wrap;html=1;backgroundOutline=1;size=0.25;" vertex="1" parent="WIyWlLk6GJQsqaUBKTNV-1">
          <mxGeometry x="186" y="416" width="120" height="60" as="geometry" />
        </mxCell>
        <mxCell id="xnfu27rIe9-U-YRjn5MW-10" value="A" style="text;html=1;align=center;verticalAlign=middle;whiteSpace=wrap;rounded=0;fontStyle=1" vertex="1" parent="WIyWlLk6GJQsqaUBKTNV-1">
          <mxGeometry x="216" y="221" width="60" height="30" as="geometry" />
        </mxCell>
        <mxCell id="xnfu27rIe9-U-YRjn5MW-11" value="E" style="text;html=1;align=center;verticalAlign=middle;whiteSpace=wrap;rounded=0;fontStyle=1" vertex="1" parent="WIyWlLk6GJQsqaUBKTNV-1">
          <mxGeometry x="216" y="317" width="60" height="30" as="geometry" />
        </mxCell>
        <mxCell id="xnfu27rIe9-U-YRjn5MW-12" value="&lt;font style=&quot;font-size: 14px;&quot;&gt;F&lt;/font&gt;" style="text;html=1;align=center;verticalAlign=middle;whiteSpace=wrap;rounded=0;fontStyle=1" vertex="1" parent="WIyWlLk6GJQsqaUBKTNV-1">
          <mxGeometry x="216" y="435.5" width="60" height="25" as="geometry" />
        </mxCell>
        <mxCell id="xnfu27rIe9-U-YRjn5MW-68" style="edgeStyle=orthogonalEdgeStyle;rounded=0;orthogonalLoop=1;jettySize=auto;html=1;exitX=1;exitY=0.25;exitDx=0;exitDy=0;entryX=0;entryY=0.5;entryDx=0;entryDy=0;" edge="1" parent="WIyWlLk6GJQsqaUBKTNV-1" source="xnfu27rIe9-U-YRjn5MW-13" target="xnfu27rIe9-U-YRjn5MW-41">
          <mxGeometry relative="1" as="geometry" />
        </mxCell>
        <mxCell id="xnfu27rIe9-U-YRjn5MW-69" style="edgeStyle=orthogonalEdgeStyle;rounded=0;orthogonalLoop=1;jettySize=auto;html=1;exitX=1;exitY=0.75;exitDx=0;exitDy=0;entryX=0;entryY=0.5;entryDx=0;entryDy=0;" edge="1" parent="WIyWlLk6GJQsqaUBKTNV-1" source="xnfu27rIe9-U-YRjn5MW-13" target="xnfu27rIe9-U-YRjn5MW-43">
          <mxGeometry relative="1" as="geometry" />
        </mxCell>
        <mxCell id="xnfu27rIe9-U-YRjn5MW-13" value="" style="shape=process;whiteSpace=wrap;html=1;backgroundOutline=1;size=0.25;" vertex="1" parent="WIyWlLk6GJQsqaUBKTNV-1">
          <mxGeometry x="186" y="596" width="120" height="60" as="geometry" />
        </mxCell>
        <mxCell id="xnfu27rIe9-U-YRjn5MW-85" style="edgeStyle=orthogonalEdgeStyle;rounded=0;orthogonalLoop=1;jettySize=auto;html=1;exitX=1;exitY=0.5;exitDx=0;exitDy=0;entryX=0;entryY=1;entryDx=0;entryDy=0;" edge="1" parent="WIyWlLk6GJQsqaUBKTNV-1" source="xnfu27rIe9-U-YRjn5MW-15">
          <mxGeometry relative="1" as="geometry">
            <mxPoint x="342" y="546" as="sourcePoint" />
            <mxPoint x="1110" y="358.5" as="targetPoint" />
          </mxGeometry>
        </mxCell>
        <mxCell id="xnfu27rIe9-U-YRjn5MW-15" value="" style="shape=process;whiteSpace=wrap;html=1;backgroundOutline=1;size=0.25;" vertex="1" parent="WIyWlLk6GJQsqaUBKTNV-1">
          <mxGeometry x="186" y="516" width="120" height="60" as="geometry" />
        </mxCell>
        <mxCell id="xnfu27rIe9-U-YRjn5MW-16" value="L" style="text;html=1;align=center;verticalAlign=middle;whiteSpace=wrap;rounded=0;fontStyle=1" vertex="1" parent="WIyWlLk6GJQsqaUBKTNV-1">
          <mxGeometry x="216" y="532" width="60" height="30" as="geometry" />
        </mxCell>
        <mxCell id="xnfu27rIe9-U-YRjn5MW-17" value="M" style="text;html=1;align=center;verticalAlign=middle;whiteSpace=wrap;rounded=0;fontStyle=1" vertex="1" parent="WIyWlLk6GJQsqaUBKTNV-1">
          <mxGeometry x="216" y="612" width="60" height="30" as="geometry" />
        </mxCell>
        <mxCell id="xnfu27rIe9-U-YRjn5MW-54" style="edgeStyle=orthogonalEdgeStyle;rounded=0;orthogonalLoop=1;jettySize=auto;html=1;exitX=1;exitY=0.5;exitDx=0;exitDy=0;entryX=0;entryY=0.75;entryDx=0;entryDy=0;" edge="1" parent="WIyWlLk6GJQsqaUBKTNV-1" source="xnfu27rIe9-U-YRjn5MW-23" target="xnfu27rIe9-U-YRjn5MW-25">
          <mxGeometry relative="1" as="geometry" />
        </mxCell>
        <mxCell id="xnfu27rIe9-U-YRjn5MW-58" style="edgeStyle=orthogonalEdgeStyle;rounded=0;orthogonalLoop=1;jettySize=auto;html=1;exitX=1;exitY=0.75;exitDx=0;exitDy=0;entryX=0;entryY=0.25;entryDx=0;entryDy=0;" edge="1" parent="WIyWlLk6GJQsqaUBKTNV-1" source="xnfu27rIe9-U-YRjn5MW-23" target="xnfu27rIe9-U-YRjn5MW-29">
          <mxGeometry relative="1" as="geometry" />
        </mxCell>
        <mxCell id="xnfu27rIe9-U-YRjn5MW-23" value="" style="shape=process;whiteSpace=wrap;html=1;backgroundOutline=1;size=0.25;" vertex="1" parent="WIyWlLk6GJQsqaUBKTNV-1">
          <mxGeometry x="376" y="236" width="120" height="60" as="geometry" />
        </mxCell>
        <mxCell id="xnfu27rIe9-U-YRjn5MW-24" value="" style="shape=process;whiteSpace=wrap;html=1;backgroundOutline=1;size=0.25;" vertex="1" parent="WIyWlLk6GJQsqaUBKTNV-1">
          <mxGeometry x="381" y="116" width="120" height="60" as="geometry" />
        </mxCell>
        <mxCell id="xnfu27rIe9-U-YRjn5MW-93" style="edgeStyle=orthogonalEdgeStyle;rounded=0;orthogonalLoop=1;jettySize=auto;html=1;exitX=1;exitY=0.5;exitDx=0;exitDy=0;entryX=0.5;entryY=0;entryDx=0;entryDy=0;" edge="1" parent="WIyWlLk6GJQsqaUBKTNV-1" source="xnfu27rIe9-U-YRjn5MW-25" target="xnfu27rIe9-U-YRjn5MW-79">
          <mxGeometry relative="1" as="geometry" />
        </mxCell>
        <mxCell id="xnfu27rIe9-U-YRjn5MW-25" value="" style="shape=process;whiteSpace=wrap;html=1;backgroundOutline=1;size=0.25;" vertex="1" parent="WIyWlLk6GJQsqaUBKTNV-1">
          <mxGeometry x="546" y="191" width="120" height="60" as="geometry" />
        </mxCell>
        <mxCell id="xnfu27rIe9-U-YRjn5MW-26" value="B" style="text;html=1;align=center;verticalAlign=middle;whiteSpace=wrap;rounded=0;fontStyle=1" vertex="1" parent="WIyWlLk6GJQsqaUBKTNV-1">
          <mxGeometry x="407" y="252" width="60" height="30" as="geometry" />
        </mxCell>
        <mxCell id="xnfu27rIe9-U-YRjn5MW-27" value="C" style="text;html=1;align=center;verticalAlign=middle;whiteSpace=wrap;rounded=0;fontStyle=1" vertex="1" parent="WIyWlLk6GJQsqaUBKTNV-1">
          <mxGeometry x="411" y="132" width="60" height="30" as="geometry" />
        </mxCell>
        <mxCell id="xnfu27rIe9-U-YRjn5MW-28" value="D" style="text;html=1;align=center;verticalAlign=middle;whiteSpace=wrap;rounded=0;fontStyle=1" vertex="1" parent="WIyWlLk6GJQsqaUBKTNV-1">
          <mxGeometry x="576" y="207" width="60" height="30" as="geometry" />
        </mxCell>
        <mxCell id="xnfu27rIe9-U-YRjn5MW-61" style="edgeStyle=orthogonalEdgeStyle;rounded=0;orthogonalLoop=1;jettySize=auto;html=1;exitX=1;exitY=0.75;exitDx=0;exitDy=0;entryX=0;entryY=0.25;entryDx=0;entryDy=0;fillColor=#e51400;strokeColor=#B20000;" edge="1" parent="WIyWlLk6GJQsqaUBKTNV-1" source="xnfu27rIe9-U-YRjn5MW-29" target="xnfu27rIe9-U-YRjn5MW-37">
          <mxGeometry relative="1" as="geometry" />
        </mxCell>
        <mxCell id="xnfu27rIe9-U-YRjn5MW-29" value="" style="shape=process;whiteSpace=wrap;html=1;backgroundOutline=1;size=0.25;fillColor=#FCE8E7;" vertex="1" parent="WIyWlLk6GJQsqaUBKTNV-1">
          <mxGeometry x="556" y="301" width="120" height="60" as="geometry" />
        </mxCell>
        <mxCell id="xnfu27rIe9-U-YRjn5MW-30" value="H" style="text;html=1;align=center;verticalAlign=middle;whiteSpace=wrap;rounded=0;fontStyle=1" vertex="1" parent="WIyWlLk6GJQsqaUBKTNV-1">
          <mxGeometry x="586" y="318" width="60" height="30" as="geometry" />
        </mxCell>
        <mxCell id="xnfu27rIe9-U-YRjn5MW-87" style="edgeStyle=orthogonalEdgeStyle;rounded=0;orthogonalLoop=1;jettySize=auto;html=1;exitX=1;exitY=0.25;exitDx=0;exitDy=0;entryX=0;entryY=0.75;entryDx=0;entryDy=0;" edge="1" parent="WIyWlLk6GJQsqaUBKTNV-1" source="xnfu27rIe9-U-YRjn5MW-31" target="xnfu27rIe9-U-YRjn5MW-37">
          <mxGeometry relative="1" as="geometry">
            <Array as="points">
              <mxPoint x="715" y="429" />
              <mxPoint x="715" y="349" />
            </Array>
          </mxGeometry>
        </mxCell>
        <mxCell id="xnfu27rIe9-U-YRjn5MW-31" value="" style="shape=process;whiteSpace=wrap;html=1;backgroundOutline=1;size=0.25;" vertex="1" parent="WIyWlLk6GJQsqaUBKTNV-1">
          <mxGeometry x="376" y="414" width="120" height="60" as="geometry" />
        </mxCell>
        <mxCell id="xnfu27rIe9-U-YRjn5MW-32" value="I" style="text;html=1;align=center;verticalAlign=middle;whiteSpace=wrap;rounded=0;fontStyle=1" vertex="1" parent="WIyWlLk6GJQsqaUBKTNV-1">
          <mxGeometry x="406" y="429" width="60" height="30" as="geometry" />
        </mxCell>
        <mxCell id="xnfu27rIe9-U-YRjn5MW-71" style="edgeStyle=orthogonalEdgeStyle;rounded=0;orthogonalLoop=1;jettySize=auto;html=1;exitX=1;exitY=0.25;exitDx=0;exitDy=0;entryX=0;entryY=0.25;entryDx=0;entryDy=0;fillColor=#e51400;strokeColor=#B20000;" edge="1" parent="WIyWlLk6GJQsqaUBKTNV-1" source="xnfu27rIe9-U-YRjn5MW-37" target="xnfu27rIe9-U-YRjn5MW-39">
          <mxGeometry relative="1" as="geometry" />
        </mxCell>
        <mxCell id="xnfu27rIe9-U-YRjn5MW-37" value="" style="shape=process;whiteSpace=wrap;html=1;backgroundOutline=1;size=0.25;fillColor=#FCE8E7;strokeColor=#b85450;" vertex="1" parent="WIyWlLk6GJQsqaUBKTNV-1">
          <mxGeometry x="741" y="304" width="120" height="60" as="geometry" />
        </mxCell>
        <mxCell id="xnfu27rIe9-U-YRjn5MW-38" value="J" style="text;html=1;align=center;verticalAlign=middle;whiteSpace=wrap;rounded=0;fontStyle=1" vertex="1" parent="WIyWlLk6GJQsqaUBKTNV-1">
          <mxGeometry x="771" y="321" width="60" height="30" as="geometry" />
        </mxCell>
        <mxCell id="xnfu27rIe9-U-YRjn5MW-82" style="edgeStyle=orthogonalEdgeStyle;rounded=0;orthogonalLoop=1;jettySize=auto;html=1;exitX=1;exitY=0.5;exitDx=0;exitDy=0;fillColor=#e51400;strokeColor=#B20000;" edge="1" parent="WIyWlLk6GJQsqaUBKTNV-1" source="xnfu27rIe9-U-YRjn5MW-39">
          <mxGeometry relative="1" as="geometry">
            <mxPoint x="1080" y="334" as="targetPoint" />
          </mxGeometry>
        </mxCell>
        <mxCell id="xnfu27rIe9-U-YRjn5MW-39" value="" style="shape=process;whiteSpace=wrap;html=1;backgroundOutline=1;size=0.25;fillColor=#fce8e7;strokeColor=#b85450;" vertex="1" parent="WIyWlLk6GJQsqaUBKTNV-1">
          <mxGeometry x="925" y="304" width="120" height="60" as="geometry" />
        </mxCell>
        <mxCell id="xnfu27rIe9-U-YRjn5MW-40" value="K" style="text;html=1;align=center;verticalAlign=middle;whiteSpace=wrap;rounded=0;fontStyle=1" vertex="1" parent="WIyWlLk6GJQsqaUBKTNV-1">
          <mxGeometry x="955" y="321" width="60" height="30" as="geometry" />
        </mxCell>
        <mxCell id="xnfu27rIe9-U-YRjn5MW-41" value="" style="shape=process;whiteSpace=wrap;html=1;backgroundOutline=1;size=0.25;" vertex="1" parent="WIyWlLk6GJQsqaUBKTNV-1">
          <mxGeometry x="378" y="566" width="120" height="60" as="geometry" />
        </mxCell>
        <mxCell id="xnfu27rIe9-U-YRjn5MW-42" value="N" style="text;html=1;align=center;verticalAlign=middle;whiteSpace=wrap;rounded=0;fontStyle=1" vertex="1" parent="WIyWlLk6GJQsqaUBKTNV-1">
          <mxGeometry x="408" y="583" width="60" height="30" as="geometry" />
        </mxCell>
        <mxCell id="xnfu27rIe9-U-YRjn5MW-43" value="" style="shape=process;whiteSpace=wrap;html=1;backgroundOutline=1;size=0.25;" vertex="1" parent="WIyWlLk6GJQsqaUBKTNV-1">
          <mxGeometry x="378" y="646" width="120" height="60" as="geometry" />
        </mxCell>
        <mxCell id="xnfu27rIe9-U-YRjn5MW-44" value="O" style="text;html=1;align=center;verticalAlign=middle;whiteSpace=wrap;rounded=0;fontStyle=1" vertex="1" parent="WIyWlLk6GJQsqaUBKTNV-1">
          <mxGeometry x="408" y="663" width="60" height="30" as="geometry" />
        </mxCell>
        <mxCell id="xnfu27rIe9-U-YRjn5MW-45" style="edgeStyle=orthogonalEdgeStyle;rounded=0;orthogonalLoop=1;jettySize=auto;html=1;exitX=1;exitY=0.75;exitDx=0;exitDy=0;entryX=0.021;entryY=0.367;entryDx=0;entryDy=0;entryPerimeter=0;" edge="1" parent="WIyWlLk6GJQsqaUBKTNV-1" source="xnfu27rIe9-U-YRjn5MW-6" target="xnfu27rIe9-U-YRjn5MW-23">
          <mxGeometry relative="1" as="geometry">
            <Array as="points">
              <mxPoint x="306" y="243" />
              <mxPoint x="341" y="243" />
              <mxPoint x="341" y="258" />
            </Array>
          </mxGeometry>
        </mxCell>
        <mxCell id="xnfu27rIe9-U-YRjn5MW-47" style="edgeStyle=orthogonalEdgeStyle;rounded=0;orthogonalLoop=1;jettySize=auto;html=1;entryX=0.007;entryY=0.353;entryDx=0;entryDy=0;entryPerimeter=0;exitX=0.986;exitY=0.672;exitDx=0;exitDy=0;exitPerimeter=0;" edge="1" parent="WIyWlLk6GJQsqaUBKTNV-1" source="xnfu27rIe9-U-YRjn5MW-24" target="xnfu27rIe9-U-YRjn5MW-25">
          <mxGeometry relative="1" as="geometry">
            <mxPoint x="506" y="156" as="sourcePoint" />
          </mxGeometry>
        </mxCell>
        <mxCell id="xnfu27rIe9-U-YRjn5MW-72" style="edgeStyle=orthogonalEdgeStyle;rounded=0;orthogonalLoop=1;jettySize=auto;html=1;exitX=1;exitY=0.75;exitDx=0;exitDy=0;entryX=0;entryY=0.75;entryDx=0;entryDy=0;" edge="1" parent="WIyWlLk6GJQsqaUBKTNV-1" source="xnfu27rIe9-U-YRjn5MW-49" target="xnfu27rIe9-U-YRjn5MW-39">
          <mxGeometry relative="1" as="geometry">
            <Array as="points">
              <mxPoint x="879" y="381" />
              <mxPoint x="879" y="349" />
            </Array>
          </mxGeometry>
        </mxCell>
        <mxCell id="xnfu27rIe9-U-YRjn5MW-49" value="" style="shape=process;whiteSpace=wrap;html=1;backgroundOutline=1;size=0.25;fillColor=#FCE8E7;" vertex="1" parent="WIyWlLk6GJQsqaUBKTNV-1">
          <mxGeometry x="376" y="336" width="120" height="60" as="geometry" />
        </mxCell>
        <mxCell id="xnfu27rIe9-U-YRjn5MW-50" value="G" style="text;html=1;align=center;verticalAlign=middle;whiteSpace=wrap;rounded=0;fontStyle=1" vertex="1" parent="WIyWlLk6GJQsqaUBKTNV-1">
          <mxGeometry x="406" y="353" width="60" height="30" as="geometry" />
        </mxCell>
        <mxCell id="xnfu27rIe9-U-YRjn5MW-59" style="edgeStyle=orthogonalEdgeStyle;rounded=0;orthogonalLoop=1;jettySize=auto;html=1;exitX=1;exitY=0.5;exitDx=0;exitDy=0;entryX=-0.014;entryY=0.658;entryDx=0;entryDy=0;entryPerimeter=0;fillColor=#e51400;strokeColor=#B20000;" edge="1" parent="WIyWlLk6GJQsqaUBKTNV-1" source="xnfu27rIe9-U-YRjn5MW-49" target="xnfu27rIe9-U-YRjn5MW-29">
          <mxGeometry relative="1" as="geometry" />
        </mxCell>
        <mxCell id="xnfu27rIe9-U-YRjn5MW-79" value="" style="shape=process;whiteSpace=wrap;html=1;backgroundOutline=1;size=0.26680384087791464;fillColor=#fce6e4;strokeColor=#b85450;" vertex="1" parent="WIyWlLk6GJQsqaUBKTNV-1">
          <mxGeometry x="1083" y="308.5" width="81" height="49" as="geometry" />
        </mxCell>
        <mxCell id="xnfu27rIe9-U-YRjn5MW-80" value="Fim" style="text;html=1;align=center;verticalAlign=middle;whiteSpace=wrap;rounded=0;fontStyle=1" vertex="1" parent="WIyWlLk6GJQsqaUBKTNV-1">
          <mxGeometry x="1093.5" y="318" width="60" height="30" as="geometry" />
        </mxCell>
        <mxCell id="xnfu27rIe9-U-YRjn5MW-90" style="edgeStyle=orthogonalEdgeStyle;rounded=0;orthogonalLoop=1;jettySize=auto;html=1;exitX=1;exitY=0.75;exitDx=0;exitDy=0;entryX=0.881;entryY=0.969;entryDx=0;entryDy=0;entryPerimeter=0;" edge="1" parent="WIyWlLk6GJQsqaUBKTNV-1" source="xnfu27rIe9-U-YRjn5MW-43" target="xnfu27rIe9-U-YRjn5MW-79">
          <mxGeometry relative="1" as="geometry" />
        </mxCell>
        <mxCell id="xnfu27rIe9-U-YRjn5MW-92" style="edgeStyle=orthogonalEdgeStyle;rounded=0;orthogonalLoop=1;jettySize=auto;html=1;exitX=1;exitY=0.75;exitDx=0;exitDy=0;entryX=0.646;entryY=0.969;entryDx=0;entryDy=0;entryPerimeter=0;" edge="1" parent="WIyWlLk6GJQsqaUBKTNV-1" source="xnfu27rIe9-U-YRjn5MW-41" target="xnfu27rIe9-U-YRjn5MW-79">
          <mxGeometry relative="1" as="geometry" />
        </mxCell>
        <mxCell id="xnfu27rIe9-U-YRjn5MW-94" value="&lt;b&gt;0&lt;/b&gt;" style="text;html=1;align=center;verticalAlign=middle;whiteSpace=wrap;rounded=0;" vertex="1" parent="WIyWlLk6GJQsqaUBKTNV-1">
          <mxGeometry x="-2" y="381" width="36" height="21" as="geometry" />
        </mxCell>
        <mxCell id="xnfu27rIe9-U-YRjn5MW-95" value="&lt;b&gt;0&lt;/b&gt;" style="text;html=1;align=center;verticalAlign=middle;whiteSpace=wrap;rounded=0;" vertex="1" parent="WIyWlLk6GJQsqaUBKTNV-1">
          <mxGeometry x="-14" y="409" width="60" height="30" as="geometry" />
        </mxCell>
        <mxCell id="xnfu27rIe9-U-YRjn5MW-96" value="&lt;b&gt;0&lt;/b&gt;" style="text;html=1;align=center;verticalAlign=middle;whiteSpace=wrap;rounded=0;" vertex="1" parent="WIyWlLk6GJQsqaUBKTNV-1">
          <mxGeometry x="49" y="377" width="60" height="30" as="geometry" />
        </mxCell>
        <mxCell id="xnfu27rIe9-U-YRjn5MW-97" value="&lt;b&gt;0&lt;/b&gt;" style="text;html=1;align=center;verticalAlign=middle;whiteSpace=wrap;rounded=0;" vertex="1" parent="WIyWlLk6GJQsqaUBKTNV-1">
          <mxGeometry x="49" y="410" width="60" height="30" as="geometry" />
        </mxCell>
        <mxCell id="xnfu27rIe9-U-YRjn5MW-98" value="&lt;b&gt;0&lt;/b&gt;" style="text;html=1;align=center;verticalAlign=middle;whiteSpace=wrap;rounded=0;" vertex="1" parent="WIyWlLk6GJQsqaUBKTNV-1">
          <mxGeometry x="173" y="199" width="60" height="30" as="geometry" />
        </mxCell>
        <mxCell id="xnfu27rIe9-U-YRjn5MW-99" value="&lt;b&gt;0&lt;/b&gt;" style="text;html=1;align=center;verticalAlign=middle;whiteSpace=wrap;rounded=0;" vertex="1" parent="WIyWlLk6GJQsqaUBKTNV-1">
          <mxGeometry x="173" y="296" width="60" height="30" as="geometry" />
        </mxCell>
        <mxCell id="xnfu27rIe9-U-YRjn5MW-100" value="&lt;b&gt;0&lt;/b&gt;" style="text;html=1;align=center;verticalAlign=middle;whiteSpace=wrap;rounded=0;" vertex="1" parent="WIyWlLk6GJQsqaUBKTNV-1">
          <mxGeometry x="172" y="409" width="60" height="30" as="geometry" />
        </mxCell>
        <mxCell id="xnfu27rIe9-U-YRjn5MW-101" value="&lt;b&gt;0&lt;/b&gt;" style="text;html=1;align=center;verticalAlign=middle;whiteSpace=wrap;rounded=0;" vertex="1" parent="WIyWlLk6GJQsqaUBKTNV-1">
          <mxGeometry x="171" y="512" width="60" height="30" as="geometry" />
        </mxCell>
        <mxCell id="xnfu27rIe9-U-YRjn5MW-102" value="&lt;b&gt;0&lt;/b&gt;" style="text;html=1;align=center;verticalAlign=middle;whiteSpace=wrap;rounded=0;" vertex="1" parent="WIyWlLk6GJQsqaUBKTNV-1">
          <mxGeometry x="171" y="592" width="60" height="30" as="geometry" />
        </mxCell>
        <mxCell id="xnfu27rIe9-U-YRjn5MW-103" value="&lt;b&gt;2&lt;/b&gt;" style="text;html=1;align=center;verticalAlign=middle;whiteSpace=wrap;rounded=0;" vertex="1" parent="WIyWlLk6GJQsqaUBKTNV-1">
          <mxGeometry x="217" y="200" width="60" height="30" as="geometry" />
        </mxCell>
        <mxCell id="xnfu27rIe9-U-YRjn5MW-104" value="&lt;b&gt;3&lt;/b&gt;" style="text;html=1;align=center;verticalAlign=middle;whiteSpace=wrap;rounded=0;" vertex="1" parent="WIyWlLk6GJQsqaUBKTNV-1">
          <mxGeometry x="407" y="230" width="60" height="30" as="geometry" />
        </mxCell>
        <mxCell id="xnfu27rIe9-U-YRjn5MW-105" value="&lt;b&gt;4&lt;/b&gt;" style="text;html=1;align=center;verticalAlign=middle;whiteSpace=wrap;rounded=0;" vertex="1" parent="WIyWlLk6GJQsqaUBKTNV-1">
          <mxGeometry x="411" y="109" width="60" height="30" as="geometry" />
        </mxCell>
        <mxCell id="xnfu27rIe9-U-YRjn5MW-107" value="&lt;b&gt;3&lt;/b&gt;" style="text;html=1;align=center;verticalAlign=middle;whiteSpace=wrap;rounded=0;" vertex="1" parent="WIyWlLk6GJQsqaUBKTNV-1">
          <mxGeometry x="576" y="184" width="60" height="30" as="geometry" />
        </mxCell>
        <mxCell id="xnfu27rIe9-U-YRjn5MW-108" value="&lt;b&gt;3&lt;/b&gt;" style="text;html=1;align=center;verticalAlign=middle;whiteSpace=wrap;rounded=0;" vertex="1" parent="WIyWlLk6GJQsqaUBKTNV-1">
          <mxGeometry x="217" y="295" width="60" height="30" as="geometry" />
        </mxCell>
        <mxCell id="xnfu27rIe9-U-YRjn5MW-110" value="&lt;b&gt;2&lt;/b&gt;" style="text;html=1;align=center;verticalAlign=middle;whiteSpace=wrap;rounded=0;" vertex="1" parent="WIyWlLk6GJQsqaUBKTNV-1">
          <mxGeometry x="406" y="331" width="60" height="30" as="geometry" />
        </mxCell>
        <mxCell id="xnfu27rIe9-U-YRjn5MW-111" value="&lt;b&gt;2&lt;/b&gt;" style="text;html=1;align=center;verticalAlign=middle;whiteSpace=wrap;rounded=0;" vertex="1" parent="WIyWlLk6GJQsqaUBKTNV-1">
          <mxGeometry x="216" y="409" width="60" height="30" as="geometry" />
        </mxCell>
        <mxCell id="xnfu27rIe9-U-YRjn5MW-112" value="&lt;b&gt;2&lt;/b&gt;" style="text;html=1;align=center;verticalAlign=middle;whiteSpace=wrap;rounded=0;" vertex="1" parent="WIyWlLk6GJQsqaUBKTNV-1">
          <mxGeometry x="586" y="294" width="60" height="30" as="geometry" />
        </mxCell>
        <mxCell id="xnfu27rIe9-U-YRjn5MW-113" value="&lt;b&gt;3&lt;/b&gt;" style="text;html=1;align=center;verticalAlign=middle;whiteSpace=wrap;rounded=0;" vertex="1" parent="WIyWlLk6GJQsqaUBKTNV-1">
          <mxGeometry x="406" y="407" width="60" height="30" as="geometry" />
        </mxCell>
        <mxCell id="xnfu27rIe9-U-YRjn5MW-114" value="&lt;b&gt;2&lt;/b&gt;" style="text;html=1;align=center;verticalAlign=middle;whiteSpace=wrap;rounded=0;" vertex="1" parent="WIyWlLk6GJQsqaUBKTNV-1">
          <mxGeometry x="771" y="296" width="60" height="30" as="geometry" />
        </mxCell>
        <mxCell id="xnfu27rIe9-U-YRjn5MW-115" value="&lt;b style=&quot;font-size: 8px;&quot;&gt;3,166666667&lt;/b&gt;" style="text;html=1;align=center;verticalAlign=middle;whiteSpace=wrap;rounded=0;fontSize=8;" vertex="1" parent="WIyWlLk6GJQsqaUBKTNV-1">
          <mxGeometry x="955" y="298" width="60" height="30" as="geometry" />
        </mxCell>
        <mxCell id="xnfu27rIe9-U-YRjn5MW-116" value="&lt;b&gt;2&lt;/b&gt;" style="text;html=1;align=center;verticalAlign=middle;whiteSpace=wrap;rounded=0;" vertex="1" parent="WIyWlLk6GJQsqaUBKTNV-1">
          <mxGeometry x="216" y="510" width="60" height="30" as="geometry" />
        </mxCell>
        <mxCell id="xnfu27rIe9-U-YRjn5MW-117" value="&lt;b&gt;2&lt;/b&gt;" style="text;html=1;align=center;verticalAlign=middle;whiteSpace=wrap;rounded=0;" vertex="1" parent="WIyWlLk6GJQsqaUBKTNV-1">
          <mxGeometry x="216" y="590" width="60" height="30" as="geometry" />
        </mxCell>
        <mxCell id="xnfu27rIe9-U-YRjn5MW-118" value="&lt;b&gt;2&lt;/b&gt;" style="text;html=1;align=center;verticalAlign=middle;whiteSpace=wrap;rounded=0;" vertex="1" parent="WIyWlLk6GJQsqaUBKTNV-1">
          <mxGeometry x="408" y="559" width="60" height="30" as="geometry" />
        </mxCell>
        <mxCell id="xnfu27rIe9-U-YRjn5MW-119" value="&lt;b&gt;2&lt;/b&gt;" style="text;html=1;align=center;verticalAlign=middle;whiteSpace=wrap;rounded=0;" vertex="1" parent="WIyWlLk6GJQsqaUBKTNV-1">
          <mxGeometry x="408" y="639" width="60" height="30" as="geometry" />
        </mxCell>
        <mxCell id="xnfu27rIe9-U-YRjn5MW-120" value="&lt;b&gt;2&lt;/b&gt;" style="text;html=1;align=center;verticalAlign=middle;whiteSpace=wrap;rounded=0;" vertex="1" parent="WIyWlLk6GJQsqaUBKTNV-1">
          <mxGeometry x="262" y="199" width="60" height="30" as="geometry" />
        </mxCell>
        <mxCell id="xnfu27rIe9-U-YRjn5MW-121" value="&lt;b&gt;2&lt;/b&gt;" style="text;html=1;align=center;verticalAlign=middle;whiteSpace=wrap;rounded=0;" vertex="1" parent="WIyWlLk6GJQsqaUBKTNV-1">
          <mxGeometry x="262" y="409" width="60" height="30" as="geometry" />
        </mxCell>
        <mxCell id="xnfu27rIe9-U-YRjn5MW-123" value="&lt;b&gt;3&lt;/b&gt;" style="text;html=1;align=center;verticalAlign=middle;whiteSpace=wrap;rounded=0;" vertex="1" parent="WIyWlLk6GJQsqaUBKTNV-1">
          <mxGeometry x="262" y="295" width="60" height="30" as="geometry" />
        </mxCell>
        <mxCell id="xnfu27rIe9-U-YRjn5MW-124" value="&lt;b&gt;2&lt;/b&gt;" style="text;html=1;align=center;verticalAlign=middle;whiteSpace=wrap;rounded=0;" vertex="1" parent="WIyWlLk6GJQsqaUBKTNV-1">
          <mxGeometry x="262" y="510" width="60" height="30" as="geometry" />
        </mxCell>
        <mxCell id="xnfu27rIe9-U-YRjn5MW-125" value="&lt;b&gt;2&lt;/b&gt;" style="text;html=1;align=center;verticalAlign=middle;whiteSpace=wrap;rounded=0;" vertex="1" parent="WIyWlLk6GJQsqaUBKTNV-1">
          <mxGeometry x="261" y="590" width="60" height="30" as="geometry" />
        </mxCell>
        <mxCell id="xnfu27rIe9-U-YRjn5MW-126" value="&lt;b&gt;2&lt;/b&gt;" style="text;html=1;align=center;verticalAlign=middle;whiteSpace=wrap;rounded=0;" vertex="1" parent="WIyWlLk6GJQsqaUBKTNV-1">
          <mxGeometry x="369" y="109" width="60" height="30" as="geometry" />
        </mxCell>
        <mxCell id="xnfu27rIe9-U-YRjn5MW-127" value="&lt;b&gt;2&lt;/b&gt;" style="text;html=1;align=center;verticalAlign=middle;whiteSpace=wrap;rounded=0;" vertex="1" parent="WIyWlLk6GJQsqaUBKTNV-1">
          <mxGeometry x="363" y="231" width="60" height="30" as="geometry" />
        </mxCell>
        <mxCell id="xnfu27rIe9-U-YRjn5MW-128" value="&lt;b&gt;2&lt;/b&gt;" style="text;html=1;align=center;verticalAlign=middle;whiteSpace=wrap;rounded=0;" vertex="1" parent="WIyWlLk6GJQsqaUBKTNV-1">
          <mxGeometry x="365" y="559" width="60" height="30" as="geometry" />
        </mxCell>
        <mxCell id="xnfu27rIe9-U-YRjn5MW-129" value="&lt;b&gt;2&lt;/b&gt;" style="text;html=1;align=center;verticalAlign=middle;whiteSpace=wrap;rounded=0;" vertex="1" parent="WIyWlLk6GJQsqaUBKTNV-1">
          <mxGeometry x="365" y="639" width="60" height="30" as="geometry" />
        </mxCell>
        <mxCell id="xnfu27rIe9-U-YRjn5MW-131" value="&lt;b&gt;3&lt;/b&gt;" style="text;html=1;align=center;verticalAlign=middle;whiteSpace=wrap;rounded=0;" vertex="1" parent="WIyWlLk6GJQsqaUBKTNV-1">
          <mxGeometry x="362" y="330" width="60" height="30" as="geometry" />
        </mxCell>
        <mxCell id="xnfu27rIe9-U-YRjn5MW-132" value="&lt;b&gt;3&lt;/b&gt;" style="text;html=1;align=center;verticalAlign=middle;whiteSpace=wrap;rounded=0;" vertex="1" parent="WIyWlLk6GJQsqaUBKTNV-1">
          <mxGeometry x="362" y="407" width="60" height="30" as="geometry" />
        </mxCell>
        <mxCell id="xnfu27rIe9-U-YRjn5MW-133" value="&lt;b&gt;6&lt;/b&gt;" style="text;html=1;align=center;verticalAlign=middle;whiteSpace=wrap;rounded=0;" vertex="1" parent="WIyWlLk6GJQsqaUBKTNV-1">
          <mxGeometry x="456" y="109" width="60" height="30" as="geometry" />
        </mxCell>
        <mxCell id="xnfu27rIe9-U-YRjn5MW-135" value="&lt;b&gt;5&lt;/b&gt;" style="text;html=1;align=center;verticalAlign=middle;whiteSpace=wrap;rounded=0;" vertex="1" parent="WIyWlLk6GJQsqaUBKTNV-1">
          <mxGeometry x="453" y="230" width="60" height="30" as="geometry" />
        </mxCell>
        <mxCell id="xnfu27rIe9-U-YRjn5MW-136" value="&lt;b&gt;5&lt;/b&gt;" style="text;html=1;align=center;verticalAlign=middle;whiteSpace=wrap;rounded=0;" vertex="1" parent="WIyWlLk6GJQsqaUBKTNV-1">
          <mxGeometry x="453" y="331" width="60" height="29" as="geometry" />
        </mxCell>
        <mxCell id="xnfu27rIe9-U-YRjn5MW-137" value="&lt;b&gt;6&lt;/b&gt;" style="text;html=1;align=center;verticalAlign=middle;whiteSpace=wrap;rounded=0;" vertex="1" parent="WIyWlLk6GJQsqaUBKTNV-1">
          <mxGeometry x="452" y="406.5" width="60" height="30" as="geometry" />
        </mxCell>
        <mxCell id="xnfu27rIe9-U-YRjn5MW-138" value="&lt;b&gt;4&lt;/b&gt;" style="text;html=1;align=center;verticalAlign=middle;whiteSpace=wrap;rounded=0;" vertex="1" parent="WIyWlLk6GJQsqaUBKTNV-1">
          <mxGeometry x="455" y="560" width="60" height="30" as="geometry" />
        </mxCell>
        <mxCell id="xnfu27rIe9-U-YRjn5MW-139" value="&lt;b&gt;4&lt;/b&gt;" style="text;html=1;align=center;verticalAlign=middle;whiteSpace=wrap;rounded=0;" vertex="1" parent="WIyWlLk6GJQsqaUBKTNV-1">
          <mxGeometry x="454" y="639" width="60" height="30" as="geometry" />
        </mxCell>
        <mxCell id="xnfu27rIe9-U-YRjn5MW-140" value="&lt;b&gt;6&lt;/b&gt;" style="text;html=1;align=center;verticalAlign=middle;whiteSpace=wrap;rounded=0;" vertex="1" parent="WIyWlLk6GJQsqaUBKTNV-1">
          <mxGeometry x="533" y="184" width="60" height="30" as="geometry" />
        </mxCell>
        <mxCell id="xnfu27rIe9-U-YRjn5MW-142" value="&lt;b&gt;5&lt;/b&gt;" style="text;html=1;align=center;verticalAlign=middle;whiteSpace=wrap;rounded=0;" vertex="1" parent="WIyWlLk6GJQsqaUBKTNV-1">
          <mxGeometry x="542" y="294" width="60" height="30" as="geometry" />
        </mxCell>
        <mxCell id="xnfu27rIe9-U-YRjn5MW-143" value="&lt;b&gt;7&lt;/b&gt;" style="text;html=1;align=center;verticalAlign=middle;whiteSpace=wrap;rounded=0;" vertex="1" parent="WIyWlLk6GJQsqaUBKTNV-1">
          <mxGeometry x="631" y="294" width="60" height="30" as="geometry" />
        </mxCell>
        <mxCell id="xnfu27rIe9-U-YRjn5MW-144" value="&lt;b&gt;9&lt;/b&gt;" style="text;html=1;align=center;verticalAlign=middle;whiteSpace=wrap;rounded=0;" vertex="1" parent="WIyWlLk6GJQsqaUBKTNV-1">
          <mxGeometry x="621" y="184" width="60" height="30" as="geometry" />
        </mxCell>
        <mxCell id="xnfu27rIe9-U-YRjn5MW-145" value="&lt;b&gt;7&lt;/b&gt;" style="text;html=1;align=center;verticalAlign=middle;whiteSpace=wrap;rounded=0;" vertex="1" parent="WIyWlLk6GJQsqaUBKTNV-1">
          <mxGeometry x="727" y="297" width="60" height="30" as="geometry" />
        </mxCell>
        <mxCell id="xnfu27rIe9-U-YRjn5MW-146" value="&lt;b&gt;9&lt;/b&gt;" style="text;html=1;align=center;verticalAlign=middle;whiteSpace=wrap;rounded=0;" vertex="1" parent="WIyWlLk6GJQsqaUBKTNV-1">
          <mxGeometry x="816" y="297" width="60" height="30" as="geometry" />
        </mxCell>
        <mxCell id="xnfu27rIe9-U-YRjn5MW-147" value="&lt;b style=&quot;font-size: 12px;&quot;&gt;9&lt;/b&gt;" style="text;html=1;align=center;verticalAlign=middle;whiteSpace=wrap;rounded=0;fontSize=12;" vertex="1" parent="WIyWlLk6GJQsqaUBKTNV-1">
          <mxGeometry x="912" y="297" width="60" height="30" as="geometry" />
        </mxCell>
        <mxCell id="xnfu27rIe9-U-YRjn5MW-148" value="&lt;font style=&quot;font-size: 8px;&quot;&gt;12,166666667&lt;/font&gt;" style="text;html=1;align=center;verticalAlign=middle;whiteSpace=wrap;rounded=0;fontStyle=1" vertex="1" parent="WIyWlLk6GJQsqaUBKTNV-1">
          <mxGeometry x="1013" y="296" width="61" height="30" as="geometry" />
        </mxCell>
        <mxCell id="xnfu27rIe9-U-YRjn5MW-149" style="edgeStyle=orthogonalEdgeStyle;rounded=0;orthogonalLoop=1;jettySize=auto;html=1;exitX=1;exitY=0.75;exitDx=0;exitDy=0;entryX=0.135;entryY=0.991;entryDx=0;entryDy=0;entryPerimeter=0;" edge="1" parent="WIyWlLk6GJQsqaUBKTNV-1" source="xnfu27rIe9-U-YRjn5MW-9" target="xnfu27rIe9-U-YRjn5MW-79">
          <mxGeometry relative="1" as="geometry">
            <Array as="points">
              <mxPoint x="306" y="450" />
              <mxPoint x="342" y="450" />
              <mxPoint x="342" y="495" />
              <mxPoint x="1094" y="495" />
            </Array>
          </mxGeometry>
        </mxCell>
        <mxCell id="xnfu27rIe9-U-YRjn5MW-150" value="&lt;font style=&quot;font-size: 8px;&quot;&gt;12,16&lt;/font&gt;" style="text;html=1;align=center;verticalAlign=middle;whiteSpace=wrap;rounded=0;fontStyle=1" vertex="1" parent="WIyWlLk6GJQsqaUBKTNV-1">
          <mxGeometry x="1066" y="298" width="61" height="30" as="geometry" />
        </mxCell>
        <mxCell id="xnfu27rIe9-U-YRjn5MW-151" value="&lt;font style=&quot;font-size: 8px;&quot;&gt;12,16&lt;/font&gt;" style="text;html=1;align=center;verticalAlign=middle;whiteSpace=wrap;rounded=0;fontStyle=1" vertex="1" parent="WIyWlLk6GJQsqaUBKTNV-1">
          <mxGeometry x="1066" y="334" width="61" height="30" as="geometry" />
        </mxCell>
        <mxCell id="xnfu27rIe9-U-YRjn5MW-152" value="&lt;font style=&quot;font-size: 8px;&quot;&gt;12,16&lt;/font&gt;" style="text;html=1;align=center;verticalAlign=middle;whiteSpace=wrap;rounded=0;fontStyle=1" vertex="1" parent="WIyWlLk6GJQsqaUBKTNV-1">
          <mxGeometry x="1125" y="298" width="61" height="30" as="geometry" />
        </mxCell>
        <mxCell id="xnfu27rIe9-U-YRjn5MW-153" value="&lt;font style=&quot;font-size: 8px;&quot;&gt;12,16&lt;/font&gt;" style="text;html=1;align=center;verticalAlign=middle;whiteSpace=wrap;rounded=0;fontStyle=1" vertex="1" parent="WIyWlLk6GJQsqaUBKTNV-1">
          <mxGeometry x="1125" y="335" width="61" height="30" as="geometry" />
        </mxCell>
        <mxCell id="xnfu27rIe9-U-YRjn5MW-154" value="&lt;b style=&quot;font-size: 10px;&quot;&gt;0&lt;/b&gt;" style="text;html=1;align=center;verticalAlign=middle;whiteSpace=wrap;rounded=0;fontSize=10;" vertex="1" parent="WIyWlLk6GJQsqaUBKTNV-1">
          <mxGeometry x="1093.5" y="300" width="60" height="30" as="geometry" />
        </mxCell>
        <mxCell id="xnfu27rIe9-U-YRjn5MW-155" value="&lt;b style=&quot;font-size: 10px;&quot;&gt;0&lt;/b&gt;" style="text;html=1;align=center;verticalAlign=middle;whiteSpace=wrap;rounded=0;fontSize=10;" vertex="1" parent="WIyWlLk6GJQsqaUBKTNV-1">
          <mxGeometry x="1093.5" y="335" width="60" height="30" as="geometry" />
        </mxCell>
        <mxCell id="xnfu27rIe9-U-YRjn5MW-157" value="&lt;font style=&quot;font-size: 8px;&quot;&gt;12,166666667&lt;/font&gt;" style="text;html=1;align=center;verticalAlign=middle;whiteSpace=wrap;rounded=0;fontStyle=1" vertex="1" parent="WIyWlLk6GJQsqaUBKTNV-1">
          <mxGeometry x="1013" y="341" width="61" height="30" as="geometry" />
        </mxCell>
        <mxCell id="xnfu27rIe9-U-YRjn5MW-158" value="&lt;b style=&quot;font-size: 12px;&quot;&gt;9&lt;/b&gt;" style="text;html=1;align=center;verticalAlign=middle;whiteSpace=wrap;rounded=0;fontSize=12;" vertex="1" parent="WIyWlLk6GJQsqaUBKTNV-1">
          <mxGeometry x="912" y="341" width="60" height="30" as="geometry" />
        </mxCell>
        <mxCell id="xnfu27rIe9-U-YRjn5MW-159" value="&lt;b style=&quot;font-size: 12px;&quot;&gt;0&lt;/b&gt;" style="text;html=1;align=center;verticalAlign=middle;whiteSpace=wrap;rounded=0;fontSize=12;" vertex="1" parent="WIyWlLk6GJQsqaUBKTNV-1">
          <mxGeometry x="955" y="342" width="60" height="30" as="geometry" />
        </mxCell>
        <mxCell id="xnfu27rIe9-U-YRjn5MW-160" value="&lt;b&gt;9&lt;/b&gt;" style="text;html=1;align=center;verticalAlign=middle;whiteSpace=wrap;rounded=0;" vertex="1" parent="WIyWlLk6GJQsqaUBKTNV-1">
          <mxGeometry x="816" y="341" width="60" height="30" as="geometry" />
        </mxCell>
        <mxCell id="xnfu27rIe9-U-YRjn5MW-161" value="&lt;b&gt;7&lt;/b&gt;" style="text;html=1;align=center;verticalAlign=middle;whiteSpace=wrap;rounded=0;" vertex="1" parent="WIyWlLk6GJQsqaUBKTNV-1">
          <mxGeometry x="727" y="341" width="60" height="30" as="geometry" />
        </mxCell>
        <mxCell id="xnfu27rIe9-U-YRjn5MW-162" value="&lt;b style=&quot;font-size: 12px;&quot;&gt;0&lt;/b&gt;" style="text;html=1;align=center;verticalAlign=middle;whiteSpace=wrap;rounded=0;fontSize=12;" vertex="1" parent="WIyWlLk6GJQsqaUBKTNV-1">
          <mxGeometry x="771" y="342" width="60" height="30" as="geometry" />
        </mxCell>
        <mxCell id="xnfu27rIe9-U-YRjn5MW-163" value="&lt;b&gt;7&lt;/b&gt;" style="text;html=1;align=center;verticalAlign=middle;whiteSpace=wrap;rounded=0;" vertex="1" parent="WIyWlLk6GJQsqaUBKTNV-1">
          <mxGeometry x="631" y="338" width="60" height="30" as="geometry" />
        </mxCell>
        <mxCell id="xnfu27rIe9-U-YRjn5MW-165" value="&lt;b&gt;5&lt;/b&gt;" style="text;html=1;align=center;verticalAlign=middle;whiteSpace=wrap;rounded=0;" vertex="1" parent="WIyWlLk6GJQsqaUBKTNV-1">
          <mxGeometry x="542" y="338" width="60" height="30" as="geometry" />
        </mxCell>
        <mxCell id="xnfu27rIe9-U-YRjn5MW-166" value="&lt;font style=&quot;font-size: 11px;&quot;&gt;&lt;b&gt;0&lt;/b&gt;&lt;/font&gt;" style="text;html=1;align=center;verticalAlign=middle;whiteSpace=wrap;rounded=0;fontSize=10;" vertex="1" parent="WIyWlLk6GJQsqaUBKTNV-1">
          <mxGeometry x="406" y="374" width="60" height="30" as="geometry" />
        </mxCell>
        <mxCell id="xnfu27rIe9-U-YRjn5MW-167" value="&lt;b&gt;5&lt;/b&gt;" style="text;html=1;align=center;verticalAlign=middle;whiteSpace=wrap;rounded=0;" vertex="1" parent="WIyWlLk6GJQsqaUBKTNV-1">
          <mxGeometry x="453" y="373" width="60" height="30" as="geometry" />
        </mxCell>
        <mxCell id="xnfu27rIe9-U-YRjn5MW-168" value="&lt;b&gt;5&lt;/b&gt;" style="text;html=1;align=center;verticalAlign=middle;whiteSpace=wrap;rounded=0;" vertex="1" parent="WIyWlLk6GJQsqaUBKTNV-1">
          <mxGeometry x="453" y="274" width="60" height="30" as="geometry" />
        </mxCell>
        <mxCell id="xnfu27rIe9-U-YRjn5MW-169" value="&lt;b&gt;2&lt;/b&gt;" style="text;html=1;align=center;verticalAlign=middle;whiteSpace=wrap;rounded=0;" vertex="1" parent="WIyWlLk6GJQsqaUBKTNV-1">
          <mxGeometry x="363" y="274" width="60" height="30" as="geometry" />
        </mxCell>
        <mxCell id="xnfu27rIe9-U-YRjn5MW-170" value="&lt;font size=&quot;1&quot;&gt;&lt;b style=&quot;font-size: 12px;&quot;&gt;0&lt;/b&gt;&lt;/font&gt;" style="text;html=1;align=center;verticalAlign=middle;whiteSpace=wrap;rounded=0;fontSize=10;" vertex="1" parent="WIyWlLk6GJQsqaUBKTNV-1">
          <mxGeometry x="407" y="274" width="60" height="30" as="geometry" />
        </mxCell>
        <mxCell id="xnfu27rIe9-U-YRjn5MW-171" value="&lt;b style=&quot;font-size: 12px;&quot;&gt;0&lt;/b&gt;" style="text;html=1;align=center;verticalAlign=middle;whiteSpace=wrap;rounded=0;fontSize=12;" vertex="1" parent="WIyWlLk6GJQsqaUBKTNV-1">
          <mxGeometry x="586" y="340" width="60" height="30" as="geometry" />
        </mxCell>
        <mxCell id="xnfu27rIe9-U-YRjn5MW-172" value="&lt;b&gt;3&lt;/b&gt;" style="text;html=1;align=center;verticalAlign=middle;whiteSpace=wrap;rounded=0;" vertex="1" parent="WIyWlLk6GJQsqaUBKTNV-1">
          <mxGeometry x="362" y="373" width="60" height="30" as="geometry" />
        </mxCell>
        <mxCell id="xnfu27rIe9-U-YRjn5MW-173" value="&lt;b&gt;7&lt;/b&gt;" style="text;html=1;align=center;verticalAlign=middle;whiteSpace=wrap;rounded=0;" vertex="1" parent="WIyWlLk6GJQsqaUBKTNV-1">
          <mxGeometry x="453" y="452" width="60" height="30" as="geometry" />
        </mxCell>
        <mxCell id="xnfu27rIe9-U-YRjn5MW-174" value="&lt;b&gt;4&lt;/b&gt;" style="text;html=1;align=center;verticalAlign=middle;whiteSpace=wrap;rounded=0;" vertex="1" parent="WIyWlLk6GJQsqaUBKTNV-1">
          <mxGeometry x="363" y="449" width="60" height="30" as="geometry" />
        </mxCell>
        <mxCell id="xnfu27rIe9-U-YRjn5MW-175" value="&lt;b&gt;1&lt;/b&gt;" style="text;html=1;align=center;verticalAlign=middle;whiteSpace=wrap;rounded=0;" vertex="1" parent="WIyWlLk6GJQsqaUBKTNV-1">
          <mxGeometry x="406" y="450" width="60" height="30" as="geometry" />
        </mxCell>
        <mxCell id="xnfu27rIe9-U-YRjn5MW-176" value="&lt;b&gt;3&lt;/b&gt;" style="text;html=1;align=center;verticalAlign=middle;whiteSpace=wrap;rounded=0;" vertex="1" parent="WIyWlLk6GJQsqaUBKTNV-1">
          <mxGeometry x="262" y="336" width="60" height="30" as="geometry" />
        </mxCell>
        <mxCell id="xnfu27rIe9-U-YRjn5MW-177" value="&lt;b&gt;0&lt;/b&gt;" style="text;html=1;align=center;verticalAlign=middle;whiteSpace=wrap;rounded=0;" vertex="1" parent="WIyWlLk6GJQsqaUBKTNV-1">
          <mxGeometry x="173" y="337" width="60" height="30" as="geometry" />
        </mxCell>
        <mxCell id="xnfu27rIe9-U-YRjn5MW-179" value="&lt;font style=&quot;font-size: 10px;&quot;&gt;12,16&lt;/font&gt;" style="text;html=1;align=center;verticalAlign=middle;whiteSpace=wrap;rounded=0;fontStyle=1" vertex="1" parent="WIyWlLk6GJQsqaUBKTNV-1">
          <mxGeometry x="261" y="454" width="61" height="30" as="geometry" />
        </mxCell>
        <mxCell id="xnfu27rIe9-U-YRjn5MW-181" value="&lt;font style=&quot;font-size: 10px;&quot;&gt;10,16&lt;/font&gt;" style="text;html=1;align=center;verticalAlign=middle;whiteSpace=wrap;rounded=0;fontStyle=1" vertex="1" parent="WIyWlLk6GJQsqaUBKTNV-1">
          <mxGeometry x="172" y="453" width="61" height="30" as="geometry" />
        </mxCell>
        <mxCell id="xnfu27rIe9-U-YRjn5MW-183" value="&lt;font style=&quot;font-size: 10px;&quot;&gt;12,16&lt;/font&gt;" style="text;html=1;align=center;verticalAlign=middle;whiteSpace=wrap;rounded=0;fontStyle=1" vertex="1" parent="WIyWlLk6GJQsqaUBKTNV-1">
          <mxGeometry x="621" y="227" width="61" height="30" as="geometry" />
        </mxCell>
        <mxCell id="xnfu27rIe9-U-YRjn5MW-184" value="&lt;font style=&quot;font-size: 10px;&quot;&gt;12,16&lt;/font&gt;" style="text;html=1;align=center;verticalAlign=middle;whiteSpace=wrap;rounded=0;fontStyle=1" vertex="1" parent="WIyWlLk6GJQsqaUBKTNV-1">
          <mxGeometry x="453" y="603" width="61" height="30" as="geometry" />
        </mxCell>
        <mxCell id="xnfu27rIe9-U-YRjn5MW-185" value="&lt;font style=&quot;font-size: 10px;&quot;&gt;12,16&lt;/font&gt;" style="text;html=1;align=center;verticalAlign=middle;whiteSpace=wrap;rounded=0;fontStyle=1" vertex="1" parent="WIyWlLk6GJQsqaUBKTNV-1">
          <mxGeometry x="453" y="683" width="61" height="30" as="geometry" />
        </mxCell>
        <mxCell id="xnfu27rIe9-U-YRjn5MW-187" value="&lt;font style=&quot;font-size: 10px;&quot;&gt;9,16&lt;/font&gt;" style="text;html=1;align=center;verticalAlign=middle;whiteSpace=wrap;rounded=0;fontStyle=1" vertex="1" parent="WIyWlLk6GJQsqaUBKTNV-1">
          <mxGeometry x="532" y="227" width="61" height="30" as="geometry" />
        </mxCell>
        <mxCell id="xnfu27rIe9-U-YRjn5MW-188" value="&lt;font style=&quot;font-size: 10px;&quot;&gt;3,16&lt;/font&gt;" style="text;html=1;align=center;verticalAlign=middle;whiteSpace=wrap;rounded=0;fontStyle=1" vertex="1" parent="WIyWlLk6GJQsqaUBKTNV-1">
          <mxGeometry x="575" y="228" width="61" height="30" as="geometry" />
        </mxCell>
        <mxCell id="xnfu27rIe9-U-YRjn5MW-190" value="&lt;font style=&quot;font-size: 10px;&quot;&gt;10,16&lt;/font&gt;" style="text;html=1;align=center;verticalAlign=middle;whiteSpace=wrap;rounded=0;fontStyle=1" vertex="1" parent="WIyWlLk6GJQsqaUBKTNV-1">
          <mxGeometry x="216" y="453" width="61" height="30" as="geometry" />
        </mxCell>
        <mxCell id="xnfu27rIe9-U-YRjn5MW-191" value="&lt;font style=&quot;font-size: 10px;&quot;&gt;10,16&lt;/font&gt;" style="text;html=1;align=center;verticalAlign=middle;whiteSpace=wrap;rounded=0;fontStyle=1" vertex="1" parent="WIyWlLk6GJQsqaUBKTNV-1">
          <mxGeometry x="363" y="605" width="61" height="30" as="geometry" />
        </mxCell>
        <mxCell id="xnfu27rIe9-U-YRjn5MW-192" value="&lt;font style=&quot;font-size: 10px;&quot;&gt;10,16&lt;/font&gt;" style="text;html=1;align=center;verticalAlign=middle;whiteSpace=wrap;rounded=0;fontStyle=1" vertex="1" parent="WIyWlLk6GJQsqaUBKTNV-1">
          <mxGeometry x="363" y="684" width="61" height="30" as="geometry" />
        </mxCell>
        <mxCell id="xnfu27rIe9-U-YRjn5MW-193" value="&lt;font style=&quot;font-size: 10px;&quot;&gt;12,16&lt;/font&gt;" style="text;html=1;align=center;verticalAlign=middle;whiteSpace=wrap;rounded=0;fontStyle=1" vertex="1" parent="WIyWlLk6GJQsqaUBKTNV-1">
          <mxGeometry x="261" y="554" width="61" height="30" as="geometry" />
        </mxCell>
        <mxCell id="xnfu27rIe9-U-YRjn5MW-194" value="&lt;font style=&quot;font-size: 10px;&quot;&gt;10,16&lt;/font&gt;" style="text;html=1;align=center;verticalAlign=middle;whiteSpace=wrap;rounded=0;fontStyle=1" vertex="1" parent="WIyWlLk6GJQsqaUBKTNV-1">
          <mxGeometry x="171" y="554" width="61" height="30" as="geometry" />
        </mxCell>
        <mxCell id="xnfu27rIe9-U-YRjn5MW-195" value="&lt;font style=&quot;font-size: 10px;&quot;&gt;10,16&lt;/font&gt;" style="text;html=1;align=center;verticalAlign=middle;whiteSpace=wrap;rounded=0;fontStyle=1" vertex="1" parent="WIyWlLk6GJQsqaUBKTNV-1">
          <mxGeometry x="215" y="554" width="61" height="30" as="geometry" />
        </mxCell>
        <mxCell id="xnfu27rIe9-U-YRjn5MW-196" value="&lt;font style=&quot;font-size: 10px;&quot;&gt;8,16&lt;/font&gt;" style="text;html=1;align=center;verticalAlign=middle;whiteSpace=wrap;rounded=0;fontStyle=1" vertex="1" parent="WIyWlLk6GJQsqaUBKTNV-1">
          <mxGeometry x="408" y="683" width="61" height="30" as="geometry" />
        </mxCell>
        <mxCell id="xnfu27rIe9-U-YRjn5MW-197" value="&lt;font style=&quot;font-size: 10px;&quot;&gt;8,16&lt;/font&gt;" style="text;html=1;align=center;verticalAlign=middle;whiteSpace=wrap;rounded=0;fontStyle=1" vertex="1" parent="WIyWlLk6GJQsqaUBKTNV-1">
          <mxGeometry x="407" y="604" width="61" height="30" as="geometry" />
        </mxCell>
        <mxCell id="xnfu27rIe9-U-YRjn5MW-198" value="&lt;font style=&quot;font-size: 10px;&quot;&gt;10,16&lt;/font&gt;" style="text;html=1;align=center;verticalAlign=middle;whiteSpace=wrap;rounded=0;fontStyle=1" vertex="1" parent="WIyWlLk6GJQsqaUBKTNV-1">
          <mxGeometry x="262" y="632" width="61" height="30" as="geometry" />
        </mxCell>
        <mxCell id="xnfu27rIe9-U-YRjn5MW-199" value="&lt;font style=&quot;font-size: 10px;&quot;&gt;8,16&lt;/font&gt;" style="text;html=1;align=center;verticalAlign=middle;whiteSpace=wrap;rounded=0;fontStyle=1" vertex="1" parent="WIyWlLk6GJQsqaUBKTNV-1">
          <mxGeometry x="172" y="633" width="61" height="30" as="geometry" />
        </mxCell>
        <mxCell id="xnfu27rIe9-U-YRjn5MW-200" value="&lt;font style=&quot;font-size: 10px;&quot;&gt;8,16&lt;/font&gt;" style="text;html=1;align=center;verticalAlign=middle;whiteSpace=wrap;rounded=0;fontStyle=1" vertex="1" parent="WIyWlLk6GJQsqaUBKTNV-1">
          <mxGeometry x="217" y="633" width="61" height="30" as="geometry" />
        </mxCell>
        <mxCell id="xnfu27rIe9-U-YRjn5MW-201" value="&lt;b&gt;0&lt;/b&gt;" style="text;html=1;align=center;verticalAlign=middle;whiteSpace=wrap;rounded=0;" vertex="1" parent="WIyWlLk6GJQsqaUBKTNV-1">
          <mxGeometry x="216" y="338" width="60" height="30" as="geometry" />
        </mxCell>
        <mxCell id="xnfu27rIe9-U-YRjn5MW-202" value="&lt;font style=&quot;font-size: 10px;&quot;&gt;9,16&lt;/font&gt;" style="text;html=1;align=center;verticalAlign=middle;whiteSpace=wrap;rounded=0;fontStyle=1" vertex="1" parent="WIyWlLk6GJQsqaUBKTNV-1">
          <mxGeometry x="456" y="154" width="61" height="30" as="geometry" />
        </mxCell>
        <mxCell id="xnfu27rIe9-U-YRjn5MW-203" value="&lt;font style=&quot;font-size: 10px;&quot;&gt;5,16&lt;/font&gt;" style="text;html=1;align=center;verticalAlign=middle;whiteSpace=wrap;rounded=0;fontStyle=1" vertex="1" parent="WIyWlLk6GJQsqaUBKTNV-1">
          <mxGeometry x="366" y="154" width="61" height="30" as="geometry" />
        </mxCell>
        <mxCell id="xnfu27rIe9-U-YRjn5MW-204" value="&lt;font style=&quot;font-size: 10px;&quot;&gt;3,16&lt;/font&gt;" style="text;html=1;align=center;verticalAlign=middle;whiteSpace=wrap;rounded=0;fontStyle=1" vertex="1" parent="WIyWlLk6GJQsqaUBKTNV-1">
          <mxGeometry x="408" y="154" width="61" height="30" as="geometry" />
        </mxCell>
        <mxCell id="xnfu27rIe9-U-YRjn5MW-205" value="&lt;b&gt;2&lt;/b&gt;" style="text;html=1;align=center;verticalAlign=middle;whiteSpace=wrap;rounded=0;" vertex="1" parent="WIyWlLk6GJQsqaUBKTNV-1">
          <mxGeometry x="261" y="243" width="60" height="30" as="geometry" />
        </mxCell>
        <mxCell id="xnfu27rIe9-U-YRjn5MW-207" value="&lt;b&gt;0&lt;/b&gt;" style="text;html=1;align=center;verticalAlign=middle;whiteSpace=wrap;rounded=0;" vertex="1" parent="WIyWlLk6GJQsqaUBKTNV-1">
          <mxGeometry x="173" y="242" width="60" height="30" as="geometry" />
        </mxCell>
        <mxCell id="xnfu27rIe9-U-YRjn5MW-209" value="&lt;b&gt;0&lt;/b&gt;" style="text;html=1;align=center;verticalAlign=middle;whiteSpace=wrap;rounded=0;" vertex="1" parent="WIyWlLk6GJQsqaUBKTNV-1">
          <mxGeometry x="216" y="244" width="60" height="30" as="geometry" />
        </mxCell>
        <mxCell id="xnfu27rIe9-U-YRjn5MW-210" value="&lt;b&gt;&lt;font style=&quot;font-size: 19px;&quot;&gt;Caminho crÃ­tico: INÃCIO- E - G - H - J - K - FIM&lt;/font&gt;&lt;/b&gt;" style="text;html=1;align=center;verticalAlign=middle;whiteSpace=wrap;rounded=0;" vertex="1" parent="WIyWlLk6GJQsqaUBKTNV-1">
          <mxGeometry x="49" y="770" width="481" height="30" as="geometry" />
        </mxCell>
        <mxCell id="xnfu27rIe9-U-YRjn5MW-211" value="&lt;b&gt;0&lt;/b&gt;" style="text;html=1;align=center;verticalAlign=middle;whiteSpace=wrap;rounded=0;" vertex="1" parent="WIyWlLk6GJQsqaUBKTNV-1">
          <mxGeometry x="27.25" y="382" width="38.5" height="19" as="geometry" />
        </mxCell>
        <mxCell id="xnfu27rIe9-U-YRjn5MW-212" value="&lt;b&gt;0&lt;/b&gt;" style="text;html=1;align=center;verticalAlign=middle;whiteSpace=wrap;rounded=0;" vertex="1" parent="WIyWlLk6GJQsqaUBKTNV-1">
          <mxGeometry x="16.5" y="410" width="60" height="30" as="geometry" />
        </mxCell>
        <mxCell id="xnfu27rIe9-U-YRjn5MW-213" value="&lt;b style=&quot;font-size: 19px;&quot;&gt;Atividade Diagrama de Redes - Parte 2&lt;br&gt;&lt;/b&gt;" style="text;html=1;align=center;verticalAlign=middle;whiteSpace=wrap;rounded=0;" vertex="1" parent="WIyWlLk6GJQsqaUBKTNV-1">
          <mxGeometry x="65" y="29" width="481" height="30" as="geometry" />
        </mxCell>
        <mxCell id="xnfu27rIe9-U-YRjn5MW-215" value="&lt;b style=&quot;font-size: 11px;&quot;&gt;FL = 0&lt;br style=&quot;font-size: 11px;&quot;&gt;&lt;/b&gt;" style="text;html=1;align=center;verticalAlign=middle;whiteSpace=wrap;rounded=0;fontSize=11;" vertex="1" parent="WIyWlLk6GJQsqaUBKTNV-1">
          <mxGeometry x="129" y="197" width="60" height="30" as="geometry" />
        </mxCell>
        <mxCell id="xnfu27rIe9-U-YRjn5MW-216" value="&lt;b style=&quot;font-size: 11px;&quot;&gt;FL = 0&lt;br style=&quot;font-size: 11px;&quot;&gt;&lt;/b&gt;" style="text;html=1;align=center;verticalAlign=middle;whiteSpace=wrap;rounded=0;fontSize=11;" vertex="1" parent="WIyWlLk6GJQsqaUBKTNV-1">
          <mxGeometry x="129" y="318" width="60" height="30" as="geometry" />
        </mxCell>
        <mxCell id="xnfu27rIe9-U-YRjn5MW-217" value="&lt;b style=&quot;font-size: 11px;&quot;&gt;FL = 0&lt;br style=&quot;font-size: 11px;&quot;&gt;&lt;/b&gt;" style="text;html=1;align=center;verticalAlign=middle;whiteSpace=wrap;rounded=0;fontSize=11;" vertex="1" parent="WIyWlLk6GJQsqaUBKTNV-1">
          <mxGeometry x="129" y="407" width="60" height="30" as="geometry" />
        </mxCell>
        <mxCell id="xnfu27rIe9-U-YRjn5MW-218" value="&lt;b style=&quot;font-size: 11px;&quot;&gt;FL = 0&lt;br style=&quot;font-size: 11px;&quot;&gt;&lt;/b&gt;" style="text;html=1;align=center;verticalAlign=middle;whiteSpace=wrap;rounded=0;fontSize=11;" vertex="1" parent="WIyWlLk6GJQsqaUBKTNV-1">
          <mxGeometry x="126" y="508" width="60" height="30" as="geometry" />
        </mxCell>
        <mxCell id="xnfu27rIe9-U-YRjn5MW-219" value="&lt;b style=&quot;font-size: 11px;&quot;&gt;FL = 0&lt;br style=&quot;font-size: 11px;&quot;&gt;&lt;/b&gt;" style="text;html=1;align=center;verticalAlign=middle;whiteSpace=wrap;rounded=0;fontSize=11;" vertex="1" parent="WIyWlLk6GJQsqaUBKTNV-1">
          <mxGeometry x="129" y="589" width="60" height="30" as="geometry" />
        </mxCell>
        <mxCell id="xnfu27rIe9-U-YRjn5MW-220" value="&lt;b style=&quot;font-size: 11px;&quot;&gt;FL = 0&lt;br style=&quot;font-size: 11px;&quot;&gt;&lt;/b&gt;" style="text;html=1;align=center;verticalAlign=middle;whiteSpace=wrap;rounded=0;fontSize=11;" vertex="1" parent="WIyWlLk6GJQsqaUBKTNV-1">
          <mxGeometry x="322" y="139" width="60" height="30" as="geometry" />
        </mxCell>
        <mxCell id="xnfu27rIe9-U-YRjn5MW-221" value="&lt;b style=&quot;font-size: 11px;&quot;&gt;FL = 0&lt;br style=&quot;font-size: 11px;&quot;&gt;&lt;/b&gt;" style="text;html=1;align=center;verticalAlign=middle;whiteSpace=wrap;rounded=0;fontSize=11;" vertex="1" parent="WIyWlLk6GJQsqaUBKTNV-1">
          <mxGeometry x="314" y="251" width="60" height="30" as="geometry" />
        </mxCell>
        <mxCell id="xnfu27rIe9-U-YRjn5MW-222" value="&lt;b style=&quot;font-size: 11px;&quot;&gt;FL = 0&lt;br style=&quot;font-size: 11px;&quot;&gt;&lt;/b&gt;" style="text;html=1;align=center;verticalAlign=middle;whiteSpace=wrap;rounded=0;fontSize=11;" vertex="1" parent="WIyWlLk6GJQsqaUBKTNV-1">
          <mxGeometry x="491" y="186" width="60" height="30" as="geometry" />
        </mxCell>
        <mxCell id="xnfu27rIe9-U-YRjn5MW-223" value="&lt;b style=&quot;font-size: 11px;&quot;&gt;FL = 1&lt;br style=&quot;font-size: 11px;&quot;&gt;&lt;/b&gt;" style="text;html=1;align=center;verticalAlign=middle;whiteSpace=wrap;rounded=0;fontSize=11;" vertex="1" parent="WIyWlLk6GJQsqaUBKTNV-1">
          <mxGeometry x="491" y="236" width="60" height="30" as="geometry" />
        </mxCell>
        <mxCell id="xnfu27rIe9-U-YRjn5MW-225" value="&lt;b style=&quot;font-size: 11px;&quot;&gt;FL = 0&lt;br style=&quot;font-size: 11px;&quot;&gt;&lt;/b&gt;" style="text;html=1;align=center;verticalAlign=middle;whiteSpace=wrap;rounded=0;fontSize=11;" vertex="1" parent="WIyWlLk6GJQsqaUBKTNV-1">
          <mxGeometry x="496" y="288" width="60" height="30" as="geometry" />
        </mxCell>
        <mxCell id="xnfu27rIe9-U-YRjn5MW-226" value="&lt;b style=&quot;font-size: 11px;&quot;&gt;FL = 0&lt;br style=&quot;font-size: 11px;&quot;&gt;&lt;/b&gt;" style="text;html=1;align=center;verticalAlign=middle;whiteSpace=wrap;rounded=0;fontSize=11;" vertex="1" parent="WIyWlLk6GJQsqaUBKTNV-1">
          <mxGeometry x="496" y="341" width="60" height="30" as="geometry" />
        </mxCell>
        <mxCell id="xnfu27rIe9-U-YRjn5MW-228" value="&lt;b style=&quot;font-size: 11px;&quot;&gt;FL = 0&lt;br style=&quot;font-size: 11px;&quot;&gt;&lt;/b&gt;" style="text;html=1;align=center;verticalAlign=middle;whiteSpace=wrap;rounded=0;fontSize=11;" vertex="1" parent="WIyWlLk6GJQsqaUBKTNV-1">
          <mxGeometry x="682" y="291" width="60" height="30" as="geometry" />
        </mxCell>
        <mxCell id="xnfu27rIe9-U-YRjn5MW-229" value="&lt;b style=&quot;font-size: 11px;&quot;&gt;FL = 1&lt;br style=&quot;font-size: 11px;&quot;&gt;&lt;/b&gt;" style="text;html=1;align=center;verticalAlign=middle;whiteSpace=wrap;rounded=0;fontSize=11;" vertex="1" parent="WIyWlLk6GJQsqaUBKTNV-1">
          <mxGeometry x="683" y="352" width="60" height="30" as="geometry" />
        </mxCell>
        <mxCell id="xnfu27rIe9-U-YRjn5MW-230" value="&lt;b style=&quot;font-size: 11px;&quot;&gt;FL = 0&lt;br style=&quot;font-size: 11px;&quot;&gt;&lt;/b&gt;" style="text;html=1;align=center;verticalAlign=middle;whiteSpace=wrap;rounded=0;fontSize=11;" vertex="1" parent="WIyWlLk6GJQsqaUBKTNV-1">
          <mxGeometry x="311" y="308.5" width="60" height="30" as="geometry" />
        </mxCell>
        <mxCell id="xnfu27rIe9-U-YRjn5MW-231" value="&lt;b style=&quot;font-size: 11px;&quot;&gt;FL = 0&lt;br style=&quot;font-size: 11px;&quot;&gt;&lt;/b&gt;" style="text;html=1;align=center;verticalAlign=middle;whiteSpace=wrap;rounded=0;fontSize=11;" vertex="1" parent="WIyWlLk6GJQsqaUBKTNV-1">
          <mxGeometry x="311" y="407" width="60" height="30" as="geometry" />
        </mxCell>
        <mxCell id="xnfu27rIe9-U-YRjn5MW-232" value="&lt;b style=&quot;font-size: 11px;&quot;&gt;FL = 0&lt;br style=&quot;font-size: 11px;&quot;&gt;&lt;/b&gt;" style="text;html=1;align=center;verticalAlign=middle;whiteSpace=wrap;rounded=0;fontSize=11;" vertex="1" parent="WIyWlLk6GJQsqaUBKTNV-1">
          <mxGeometry x="318" y="574" width="60" height="30" as="geometry" />
        </mxCell>
        <mxCell id="xnfu27rIe9-U-YRjn5MW-233" value="&lt;b style=&quot;font-size: 11px;&quot;&gt;FL = 0&lt;br style=&quot;font-size: 11px;&quot;&gt;&lt;/b&gt;" style="text;html=1;align=center;verticalAlign=middle;whiteSpace=wrap;rounded=0;fontSize=11;" vertex="1" parent="WIyWlLk6GJQsqaUBKTNV-1">
          <mxGeometry x="314" y="669" width="60" height="30" as="geometry" />
        </mxCell>
        <mxCell id="xnfu27rIe9-U-YRjn5MW-234" value="&lt;b style=&quot;font-size: 11px;&quot;&gt;FL = 0&lt;br style=&quot;font-size: 11px;&quot;&gt;&lt;/b&gt;" style="text;html=1;align=center;verticalAlign=middle;whiteSpace=wrap;rounded=0;fontSize=11;" vertex="1" parent="WIyWlLk6GJQsqaUBKTNV-1">
          <mxGeometry x="863" y="297" width="60" height="30" as="geometry" />
        </mxCell>
        <mxCell id="xnfu27rIe9-U-YRjn5MW-236" value="&lt;b style=&quot;font-size: 11px;&quot;&gt;FL = 4&lt;br style=&quot;font-size: 11px;&quot;&gt;&lt;/b&gt;" style="text;html=1;align=center;verticalAlign=middle;whiteSpace=wrap;rounded=0;fontSize=11;" vertex="1" parent="WIyWlLk6GJQsqaUBKTNV-1">
          <mxGeometry x="869" y="351" width="60" height="30" as="geometry" />
        </mxCell>
        <mxCell id="xnfu27rIe9-U-YRjn5MW-237" value="&lt;b style=&quot;font-size: 11px;&quot;&gt;FL = 3,16&lt;br&gt;&lt;/b&gt;" style="text;html=1;align=center;verticalAlign=middle;whiteSpace=wrap;rounded=0;fontSize=11;" vertex="1" parent="WIyWlLk6GJQsqaUBKTNV-1">
          <mxGeometry x="1065" y="270" width="60" height="30" as="geometry" />
        </mxCell>
        <mxCell id="xnfu27rIe9-U-YRjn5MW-239" value="&lt;font style=&quot;font-size: 8px;&quot;&gt;&lt;b&gt;FL = 0&lt;br&gt;&lt;/b&gt;&lt;/font&gt;" style="text;html=1;align=center;verticalAlign=middle;whiteSpace=wrap;rounded=0;fontSize=11;" vertex="1" parent="WIyWlLk6GJQsqaUBKTNV-1">
          <mxGeometry x="1029" y="314" width="60" height="30" as="geometry" />
        </mxCell>
        <mxCell id="xnfu27rIe9-U-YRjn5MW-242" value="&lt;b style=&quot;font-size: 11px;&quot;&gt;FL = 10,16&lt;br style=&quot;font-size: 11px;&quot;&gt;&lt;/b&gt;" style="text;html=1;align=center;verticalAlign=middle;whiteSpace=wrap;rounded=0;fontSize=11;" vertex="1" parent="WIyWlLk6GJQsqaUBKTNV-1">
          <mxGeometry x="1033.5" y="471" width="60" height="30" as="geometry" />
        </mxCell>
        <mxCell id="xnfu27rIe9-U-YRjn5MW-245" value="&lt;b style=&quot;font-size: 11px;&quot;&gt;FL = 10,16&lt;br style=&quot;font-size: 11px;&quot;&gt;&lt;/b&gt;" style="text;html=1;align=center;verticalAlign=middle;whiteSpace=wrap;rounded=0;fontSize=11;" vertex="1" parent="WIyWlLk6GJQsqaUBKTNV-1">
          <mxGeometry x="1048" y="519" width="60" height="30" as="geometry" />
        </mxCell>
        <mxCell id="xnfu27rIe9-U-YRjn5MW-246" value="&lt;b style=&quot;font-size: 11px;&quot;&gt;FL = 8,16&lt;br style=&quot;font-size: 11px;&quot;&gt;&lt;/b&gt;" style="text;html=1;align=center;verticalAlign=middle;whiteSpace=wrap;rounded=0;fontSize=11;" vertex="1" parent="WIyWlLk6GJQsqaUBKTNV-1">
          <mxGeometry x="1074" y="585" width="60" height="30" as="geometry" />
        </mxCell>
        <mxCell id="xnfu27rIe9-U-YRjn5MW-247" value="&lt;b style=&quot;font-size: 11px;&quot;&gt;FL = 8,16&lt;br style=&quot;font-size: 11px;&quot;&gt;&lt;/b&gt;" style="text;html=1;align=center;verticalAlign=middle;whiteSpace=wrap;rounded=0;fontSize=11;" vertex="1" parent="WIyWlLk6GJQsqaUBKTNV-1">
          <mxGeometry x="1091" y="668" width="60" height="30" as="geometry" />
        </mxCell>
      </root>
    </mxGraphModel>
  </diagram>
</mxfile>
